<svg id="visual" viewBox="0 0 960 300" width="960" height="300" xmlns="http://www.w3.org/2000/svg" xmlns:xlink="http://www.w3.org/1999/xlink" version="1.1"><rect x="0" y="0" width="960" height="300" fill="#000000"></rect><path d="M0 146L20 154.5C40 163 80 180 120 188.3C160 196.7 200 196.3 240 186.8C280 177.3 320 158.7 360 151.8C400 145 440 150 480 153.7C520 157.3 560 159.7 600 166.5C640 173.3 680 184.7 720 184.2C760 183.7 800 171.3 840 159.3C880 147.3 920 135.7 940 129.8L960 124L960 0L940 0C920 0 880 0 840 0C800 0 760 0 720 0C680 0 640 0 600 0C560 0 520 0 480 0C440 0 400 0 360 0C320 0 280 0 240 0C200 0 160 0 120 0C80 0 40 0 20 0L0 0Z" fill="#4f3bdd"></path><path d="M0 154L20 147.5C40 141 80 128 120 128.2C160 128.3 200 141.7 240 143.5C280 145.3 320 135.7 360 135.7C400 135.7 440 145.3 480 142.7C520 140 560 125 600 125.5C640 126 680 142 720 150.7C760 159.3 800 160.7 840 156.3C880 152 920 142 940 137L960 132L960 0L940 0C920 0 880 0 840 0C800 0 760 0 720 0C680 0 640 0 600 0C560 0 520 0 480 0C440 0 400 0 360 0C320 0 280 0 240 0C200 0 160 0 120 0C80 0 40 0 20 0L0 0Z" fill="#0b5fdf"></path><path d="M0 89L20 93.5C40 98 80 107 120 112C160 117 200 118 240 113.3C280 108.7 320 98.3 360 94.8C400 91.3 440 94.7 480 98.5C520 102.3 560 106.7 600 111C640 115.3 680 119.7 720 112.8C760 106 800 88 840 86.2C880 84.3 920 98.7 940 105.8L960 113L960 0L940 0C920 0 880 0 840 0C800 0 760 0 720 0C680 0 640 0 600 0C560 0 520 0 480 0C440 0 400 0 360 0C320 0 280 0 240 0C200 0 160 0 120 0C80 0 40 0 20 0L0 0Z" fill="#0077d5"></path><path d="M0 82L20 79.3C40 76.7 80 71.3 120 66.3C160 61.3 200 56.7 240 59.8C280 63 320 74 360 78.2C400 82.3 440 79.7 480 80.3C520 81 560 85 600 80.2C640 75.3 680 61.7 720 59.2C760 56.7 800 65.3 840 68C880 70.7 920 67.3 940 65.7L960 64L960 0L940 0C920 0 880 0 840 0C800 0 760 0 720 0C680 0 640 0 600 0C560 0 520 0 480 0C440 0 400 0 360 0C320 0 280 0 240 0C200 0 160 0 120 0C80 0 40 0 20 0L0 0Z" fill="#0086bf"></path><path d="M0 40L20 37.7C40 35.3 80 30.7 120 28.8C160 27 200 28 240 29.7C280 31.3 320 33.7 360 34.5C400 35.3 440 34.7 480 35.8C520 37 560 40 600 42C640 44 680 45 720 47C760 49 800 52 840 48.7C880 45.3 920 35.7 940 30.8L960 26L960 0L940 0C920 0 880 0 840 0C800 0 760 0 720 0C680 0 640 0 600 0C560 0 520 0 480 0C440 0 400 0 360 0C320 0 280 0 240 0C200 0 160 0 120 0C80 0 40 0 20 0L0 0Z" fill="#2e8da2"></path></svg>