<svg version="1.2" baseProfile="tiny-ps" xmlns="http://www.w3.org/2000/svg" viewBox="0 0 960 300" width="960" height="300">
	<title>layer1-svg</title>
	<style>
		tspan { white-space:pre }
		.s0 { fill: #4f3bdd } 
		.s1 { fill: #0b5fdf } 
		.s2 { fill: #0077d5 } 
		.s3 { fill: #0086bf } 
		.s4 { fill: #2e8da2 } 
	</style>
	<path id="Layer" class="s0" d="m0 0h20c20 0 60 0 100 0c40 0 80 0 120 0c40 0 80 0 120 0c40 0 80 0 120 0c40 0 80 0 120 0c40 0 80 0 120 0c40 0 80 0 120 0c40 0 80 0 100 0h20v124l-20 5.8c-20 5.9-60 17.5-100 29.5c-40 12-80 24.4-120 24.9c-40 0.5-80-10.9-120-17.7c-40-6.8-80-9.2-120-12.8c-40-3.7-80-8.7-120-1.9c-40 6.9-80 25.5-120 35c-40 9.5-80 9.9-120 1.5c-40-8.3-80-25.3-100-33.8l-20-8.5v-146z" />
	<path id="Layer" class="s1" d="m0 0h20c20 0 60 0 100 0c40 0 80 0 120 0c40 0 80 0 120 0c40 0 80 0 120 0c40 0 80 0 120 0c40 0 80 0 120 0c40 0 80 0 120 0c40 0 80 0 100 0h20v132l-20 5c-20 5-60 15-100 19.3c-40 4.4-80 3-120-5.6c-40-8.7-80-24.7-120-25.2c-40-0.5-80 14.5-120 17.2c-40 2.6-80-7-120-7c-40 0-80 9.6-120 7.8c-40-1.8-80-15.2-120-15.3c-40-0.2-80 12.8-100 19.3l-20 6.5v-154z" />
	<path id="Layer" class="s2" d="m0 0h20c20 0 60 0 100 0c40 0 80 0 120 0c40 0 80 0 120 0c40 0 80 0 120 0c40 0 80 0 120 0c40 0 80 0 120 0c40 0 80 0 120 0c40 0 80 0 100 0h20v113l-20-7.2c-20-7.1-60-21.5-100-19.6c-40 1.8-80 19.8-120 26.6c-40 6.9-80 2.5-120-1.8c-40-4.3-80-8.7-120-12.5c-40-3.8-80-7.2-120-3.7c-40 3.5-80 13.9-120 18.5c-40 4.7-80 3.7-120-1.3c-40-5-80-14-100-18.5l-20-4.5v-89z" />
	<path id="Layer" class="s3" d="m0 0h20c20 0 60 0 100 0c40 0 80 0 120 0c40 0 80 0 120 0c40 0 80 0 120 0c40 0 80 0 120 0c40 0 80 0 120 0c40 0 80 0 120 0c40 0 80 0 100 0h20v64l-20 1.7c-20 1.6-60 5-100 2.3c-40-2.7-80-11.3-120-8.8c-40 2.5-80 16.1-120 21c-40 4.8-80 0.8-120 0.1c-40-0.6-80 2-120-2.1c-40-4.2-80-15.2-120-18.4c-40-3.1-80 1.5-120 6.5c-40 5-80 10.4-100 13l-20 2.7v-82z" />
	<path id="Layer" class="s4" d="m0 0h20c20 0 60 0 100 0c40 0 80 0 120 0c40 0 80 0 120 0c40 0 80 0 120 0c40 0 80 0 120 0c40 0 80 0 120 0c40 0 80 0 120 0c40 0 80 0 100 0h20v26l-20 4.8c-20 4.9-60 14.5-100 17.9c-40 3.3-80 0.3-120-1.7c-40-2-80-3-120-5c-40-2-80-5-120-6.2c-40-1.1-80-0.5-120-1.3c-40-0.8-80-3.2-120-4.8c-40-1.7-80-2.7-120-0.9c-40 1.9-80 6.5-100 8.9l-20 2.3v-40z" />
</svg>